# xmcd CD database file generated by Grip 2.9
# 
# Track frame offsets:
#       182
#       19590
#       42805
#       58157
#       78697
#       99592
#       122572
#       148092
#       187025
#       212182
#       255602
# 
# Disc length: 3942 seconds
# 
# Revision: 3
# Processed by: cddbd v1.4b41PL1 Copyright (c) Steve Scherf et al.
# Submitted via: Grip 2.9
# 
DISCID=9e0f640b
DTITLE=Eric Clapton - Slowhand Blues [CD 2)
DYEAR=1900
DGENRE=
TTITLE0=Meet Me In The Bottom
TTITLE1=Forty Four
TTITLE2=It's My Life
TTITLE3=Love Her With A Feeling
TTITLE4=Tore Down
TTITLE5=Born Under A Bad Sign
TTITLE6=Let Me Love You Baby
TTITLE7=Groaning The Blues
TTITLE8=Hear Me Calling
TTITLE9=Ain't Nobody Business
TTITLE10=Sweet Home Chicago
EXTD=
EXTT0=
EXTT1=
EXTT2=
EXTT3=
EXTT4=
EXTT5=
EXTT6=
EXTT7=
EXTT8=
EXTT9=
EXTT10=
PLAYORDER=
